<svg width="69" height="10" viewBox="0 0 69 10" fill="none" xmlns="http://www.w3.org/2000/svg">
<path d="M7.76953 4.92773C7.76953 5.76758 7.62109 6.50391 7.32422 7.13672C7.02734 7.76953 6.60156 8.25781 6.04688 8.60156C5.49609 8.94531 4.86328 9.11719 4.14844 9.11719C3.44141 9.11719 2.81055 8.94727 2.25586 8.60742C1.70117 8.26758 1.27148 7.7832 0.966797 7.1543C0.662109 6.52148 0.507812 5.79492 0.503906 4.97461V4.55273C0.503906 3.71289 0.654297 2.97461 0.955078 2.33789C1.25977 1.69727 1.6875 1.20703 2.23828 0.867188C2.79297 0.523437 3.42578 0.351562 4.13672 0.351562C4.84766 0.351562 5.47852 0.523437 6.0293 0.867188C6.58398 1.20703 7.01172 1.69727 7.3125 2.33789C7.61719 2.97461 7.76953 3.71094 7.76953 4.54688V4.92773ZM5.98828 4.54102C5.98828 3.64648 5.82812 2.9668 5.50781 2.50195C5.1875 2.03711 4.73047 1.80469 4.13672 1.80469C3.54688 1.80469 3.0918 2.03516 2.77148 2.49609C2.45117 2.95312 2.28906 3.625 2.28516 4.51172V4.92773C2.28516 5.79883 2.44531 6.47461 2.76562 6.95508C3.08594 7.43555 3.54688 7.67578 4.14844 7.67578C4.73828 7.67578 5.19141 7.44531 5.50781 6.98438C5.82422 6.51953 5.98438 5.84375 5.98828 4.95703V4.54102ZM12.2051 5.87695H10.8047V9H9.04688V0.46875H12.2168C13.2246 0.46875 14.002 0.693359 14.5488 1.14258C15.0957 1.5918 15.3691 2.22656 15.3691 3.04688C15.3691 3.62891 15.2422 4.11523 14.9883 4.50586C14.7383 4.89258 14.3574 5.20117 13.8457 5.43164L15.6914 8.91797V9H13.8047L12.2051 5.87695ZM10.8047 4.45312H12.2227C12.6641 4.45312 13.0059 4.3418 13.248 4.11914C13.4902 3.89258 13.6113 3.58203 13.6113 3.1875C13.6113 2.78516 13.4961 2.46875 13.2656 2.23828C13.0391 2.00781 12.6895 1.89258 12.2168 1.89258H10.8047V4.45312ZM16.7109 9V0.46875H19.3359C20.0859 0.46875 20.7559 0.638672 21.3457 0.978516C21.9395 1.31445 22.4023 1.79492 22.7344 2.41992C23.0664 3.04102 23.2324 3.74805 23.2324 4.54102V4.93359C23.2324 5.72656 23.0684 6.43164 22.7402 7.04883C22.416 7.66602 21.957 8.14453 21.3633 8.48438C20.7695 8.82422 20.0996 8.99609 19.3535 9H16.7109ZM18.4688 1.89258V7.58789H19.3184C20.0059 7.58789 20.5312 7.36328 20.8945 6.91406C21.2578 6.46484 21.4434 5.82227 21.4512 4.98633V4.53516C21.4512 3.66797 21.2715 3.01172 20.9121 2.56641C20.5527 2.11719 20.0273 1.89258 19.3359 1.89258H18.4688ZM29.6484 5.30273H26.2734V7.58789H30.2344V9H24.5156V0.46875H30.2227V1.89258H26.2734V3.92578H29.6484V5.30273ZM34.4238 5.87695H33.0234V9H31.2656V0.46875H34.4355C35.4434 0.46875 36.2207 0.693359 36.7676 1.14258C37.3145 1.5918 37.5879 2.22656 37.5879 3.04688C37.5879 3.62891 37.4609 4.11523 37.207 4.50586C36.957 4.89258 36.5762 5.20117 36.0645 5.43164L37.9102 8.91797V9H36.0234L34.4238 5.87695ZM33.0234 4.45312H34.4414C34.8828 4.45312 35.2246 4.3418 35.4668 4.11914C35.709 3.89258 35.8301 3.58203 35.8301 3.1875C35.8301 2.78516 35.7148 2.46875 35.4844 2.23828C35.2578 2.00781 34.9082 1.89258 34.4355 1.89258H33.0234V4.45312ZM48.8555 9H47.0977L43.6758 3.38672V9H41.918V0.46875H43.6758L47.1035 6.09375V0.46875H48.8555V9ZM57.3984 4.92773C57.3984 5.76758 57.25 6.50391 56.9531 7.13672C56.6562 7.76953 56.2305 8.25781 55.6758 8.60156C55.125 8.94531 54.4922 9.11719 53.7773 9.11719C53.0703 9.11719 52.4395 8.94727 51.8848 8.60742C51.3301 8.26758 50.9004 7.7832 50.5957 7.1543C50.291 6.52148 50.1367 5.79492 50.1328 4.97461V4.55273C50.1328 3.71289 50.2832 2.97461 50.584 2.33789C50.8887 1.69727 51.3164 1.20703 51.8672 0.867188C52.4219 0.523437 53.0547 0.351562 53.7656 0.351562C54.4766 0.351562 55.1074 0.523437 55.6582 0.867188C56.2129 1.20703 56.6406 1.69727 56.9414 2.33789C57.2461 2.97461 57.3984 3.71094 57.3984 4.54688V4.92773ZM55.6172 4.54102C55.6172 3.64648 55.457 2.9668 55.1367 2.50195C54.8164 2.03711 54.3594 1.80469 53.7656 1.80469C53.1758 1.80469 52.7207 2.03516 52.4004 2.49609C52.0801 2.95312 51.918 3.625 51.9141 4.51172V4.92773C51.9141 5.79883 52.0742 6.47461 52.3945 6.95508C52.7148 7.43555 53.1758 7.67578 53.7773 7.67578C54.3672 7.67578 54.8203 7.44531 55.1367 6.98438C55.4531 6.51953 55.6133 5.84375 55.6172 4.95703V4.54102ZM65.3203 6.53906L66.4688 0.46875H68.2207L66.3281 9H64.5586L63.1699 3.29297L61.7812 9H60.0117L58.1191 0.46875H59.8711L61.0254 6.52734L62.4316 0.46875H63.9199L65.3203 6.53906Z" fill="#FFB400"/>
</svg>
